<svg xmlns="http://www.w3.org/2000/svg" xmlns:xlink="http://www.w3.org/1999/xlink" version="1.1" x="0px" y="0px" viewBox="-255 347 100 125" enable-background="new -255 347 100 100" xml:space="preserve"><path fill-rule="evenodd" clip-rule="evenodd" d="M-182.5,402.5l-22,30l-22-30h0.1c-2.6-4-4.1-8.8-4.1-14c0-14.4,11.6-26,26-26  c14.4,0,26,11.6,26,26c0,5.2-1.5,10-4.1,14H-182.5z M-204.5,378.5c-5.5,0-10,4.5-10,10s4.5,10,10,10c5.5,0,10-4.5,10-10  S-199,378.5-204.5,378.5z"/><text x="-255" y="462" fill="#000000" font-size="5px" font-weight="bold" font-family="'Helvetica Neue', Helvetica, Arial-Unicode, Arial, Sans-serif">Created by Rohith M S</text><text x="-255" y="467" fill="#000000" font-size="5px" font-weight="bold" font-family="'Helvetica Neue', Helvetica, Arial-Unicode, Arial, Sans-serif">from the Noun Project</text></svg>